<?xml version="1.0" standalone="no"?>
<!DOCTYPE svg PUBLIC "-//W3C//DTD SVG 20010904//EN"
 "http://www.w3.org/TR/2001/REC-SVG-20010904/DTD/svg10.dtd">
<svg version="1.0" xmlns="http://www.w3.org/2000/svg"
 width="146.000000pt" height="146.000000pt" viewBox="0 0 146.000000 146.000000"
 preserveAspectRatio="xMidYMid meet">
<metadata>
Created by potrace 1.11, written by Peter Selinger 2001-2013
</metadata>
<g transform="translate(0.000000,146.000000) scale(0.100000,-0.100000)"
fill="#000000" stroke="none">
<path d="M608 1430 c-576 -104 -807 -804 -404 -1227 77 -81 111 -90 157 -43
45 44 36 78 -39 158 -212 224 -207 571 11 786 115 114 242 168 397 168 256 1
482 -175 547 -425 79 -306 -130 -647 -406 -661 -64 -3 -141 21 -178 56 -54 50
-67 93 -71 235 l-4 133 116 0 c124 0 158 9 175 47 17 36 13 59 -13 90 l-24 27
-260 4 c-259 3 -259 3 -286 -20 -29 -24 -34 -46 -23 -90 9 -34 36 -49 94 -53
24 -1 46 -5 50 -8 3 -4 7 -62 8 -129 1 -68 7 -143 14 -168 52 -182 192 -288
381 -288 146 0 266 48 375 149 267 250 311 655 104 956 -97 140 -279 262 -446
299 -49 10 -226 13 -275 4z"/>
<path d="M495 1007 c-74 -41 -72 -138 2 -176 36 -18 71 -13 105 18 27 24 32
35 31 71 -1 31 -8 49 -26 67 -27 27 -82 37 -112 20z"/>
</g>
</svg>
